<?xml version="1.0" encoding="UTF-8" standalone="no"?>
<!-- Created with Inkscape (http://www.inkscape.org/) -->

<svg
   id="svg2"
   sodipodi:docname="RPM cleaned up.svg"
   inkscape:export-filename="F:\Aviation\Cessna 736RY\SVGs\Width 3.125\Cessna Tachometer.png"
   viewBox="0 0 281.25 281.25"
   sodipodi:version="0.32"
   inkscape:export-xdpi="90"
   version="1.0"
   inkscape:output_extension="org.inkscape.output.svg.inkscape"
   inkscape:export-ydpi="90"
   inkscape:version="1.2.2 (732a01da63, 2022-12-09)"
   xmlns:inkscape="http://www.inkscape.org/namespaces/inkscape"
   xmlns:sodipodi="http://sodipodi.sourceforge.net/DTD/sodipodi-0.dtd"
   xmlns="http://www.w3.org/2000/svg"
   xmlns:svg="http://www.w3.org/2000/svg"
   xmlns:rdf="http://www.w3.org/1999/02/22-rdf-syntax-ns#"
   xmlns:cc="http://creativecommons.org/ns#"
   xmlns:dc="http://purl.org/dc/elements/1.1/">
  <defs
     id="defs130" />
  <sodipodi:namedview
     id="base"
     bordercolor="#666666"
     inkscape:pageshadow="2"
     guidetolerance="10"
     pagecolor="#ffffff"
     gridtolerance="10000"
     inkscape:window-height="1009"
     inkscape:zoom="0.95594466"
     objecttolerance="10"
     showgrid="false"
     borderopacity="1.0"
     inkscape:current-layer="layer1"
     inkscape:cx="185.15716"
     inkscape:cy="69.041654"
     inkscape:window-y="-8"
     inkscape:window-x="1912"
     inkscape:window-width="1920"
     inkscape:pageopacity="0.0"
     inkscape:document-units="px"
     inkscape:showpageshadow="2"
     inkscape:pagecheckerboard="0"
     inkscape:deskcolor="#d1d1d1"
     inkscape:window-maximized="1" />
  <g
     id="layer1"
     inkscape:label="Layer 1"
     inkscape:groupmode="layer"
     transform="translate(-231.42 -28.079)">
    <path
       id="path2221"
       sodipodi:rx="69.614906"
       sodipodi:ry="66.952042"
       style="stroke-linejoin:round;fill-rule:evenodd;stroke:#0c0909;stroke-width:3;fill:#1a1a1a"
       sodipodi:type="arc"
       d="m153.69 133.29a69.615 66.952 0 1 1 -139.23 0 69.615 66.952 0 1 1 139.23 0z"
       transform="matrix(1.9766 0 0 2.0552 205.87 -105.24)"
       sodipodi:cy="133.29323"
       sodipodi:cx="84.070465" />
    <path
       id="path8077"
       style="fill-rule:evenodd;stroke:#ffffff;stroke-width:3.198;fill:#333333"
       d="m278.5 173.13l13.23 0.21" />
    <path
       id="path2354"
       sodipodi:rx="107.7061"
       sodipodi:ry="93.851395"
       style="opacity:.5;stroke-linejoin:round;stroke:#00ff00;stroke-width:15.45;fill:none"
       sodipodi:type="arc"
       d="m223.42 62.838a107.71 93.851 0 0 1 40.02 37.064"
       sodipodi:open="true"
       transform="matrix(.78855 0 -.029079 .93299 242.1 39.343)"
       sodipodi:cy="143.27406"
       sodipodi:cx="167.92366"
       sodipodi:end="5.8027834"
       sodipodi:start="5.2536505" />
    <path
       id="path3517"
       sodipodi:rx="107.7061"
       sodipodi:ry="93.851395"
       style="stroke-linejoin:round;stroke:#ffff00;stroke-width:15.45;fill:none"
       sodipodi:type="arc"
       d="m258.98 93.141a107.71 93.851 0 0 1 12.2 23.439"
       sodipodi:open="true"
       transform="matrix(.78855 0 -.029079 .93299 245.11 45.227)"
       sodipodi:cy="143.27406"
       sodipodi:cx="167.92366"
       sodipodi:end="5.9947696"
       sodipodi:start="5.7196534" />
    <path
       id="path7082"
       style="fill-rule:evenodd;stroke:#ffffff;stroke-width:4.8491;fill:#333333"
       d="m399.09 78.574l-6.11 20.111" />
    <path
       id="path7084"
       style="fill-rule:evenodd;stroke:#ffffff;stroke-width:4.8491;fill:#333333"
       d="m334.81 81.088l8.26 19.752" />
    <path
       id="path7086"
       style="fill-rule:evenodd;stroke:#ffffff;stroke-width:4.8491;fill:#333333"
       d="m287.04 122.39l17.96 11.13" />
    <path
       id="path7088"
       style="fill-rule:evenodd;stroke:#ffffff;stroke-width:4.8491;fill:#333333"
       d="m275.19 185.95l21.91-2.15" />
    <path
       id="path7090"
       style="fill-rule:evenodd;stroke:#ffffff;stroke-width:4.8491;fill:#333333"
       d="m450.8 117l-17.95 12.57" />
    <path
       id="path7092"
       style="stroke:#ffffff;stroke-width:2.5677;fill:none"
       d="m458.34 141.14l-12.46 4.63" />
    <path
       id="path8065"
       style="fill-rule:evenodd;stroke:#ffffff;stroke-width:5.3097;fill:#333333"
       d="m430.75 227.22l12.19 11.01" />
    <path
       id="path8067"
       style="fill-rule:evenodd;stroke:#ffffff;stroke-width:4.8491;fill:#333333"
       d="m446.13 178.41l21.91 0.36" />
    <path
       id="path8069"
       style="fill-rule:evenodd;stroke:#ffffff;stroke-width:3.2004;fill:#333333"
       d="m309.26 222.64l-10.11 7.83" />
    <path
       id="path8071"
       style="fill-rule:evenodd;stroke:#ffffff;stroke-width:3.2004;fill:#333333"
       d="m303.28 214.18l-10.73 6.39" />
    <path
       id="path8073"
       style="fill-rule:evenodd;stroke:#ffffff;stroke-width:3.2004;fill:#333333"
       d="m298.53 204.07l-11.96 5.57" />
    <path
       id="path8075"
       style="fill-rule:evenodd;stroke:#ffffff;stroke-width:3.2004;fill:#333333"
       d="m282.45 197.68l12.16-3.3" />
    <path
       id="path8079"
       style="fill-rule:evenodd;stroke:#ffffff;stroke-width:3.2004;fill:#333333"
       d="m279.71 160.43l13 1.65" />
    <path
       id="path8081"
       style="fill-rule:evenodd;stroke:#ffffff;stroke-width:3.2418;fill:#333333"
       d="m282.45 148.52l12.67 2.85" />
    <path
       id="path8083"
       style="fill-rule:evenodd;stroke:#ffffff;stroke-width:3.4314;fill:#333333"
       d="m286.71 136.75l11.94 5.3" />
    <path
       id="path8085"
       style="fill-rule:evenodd;stroke:#ffffff;stroke-width:3.273;fill:#333333"
       d="m298.99 115.9l10.34 8.02" />
    <path
       id="path8087"
       style="fill-rule:evenodd;stroke:#ffffff;stroke-width:3.2933;fill:#333333"
       d="m306.75 107.04l9.34 9.13" />
    <path
       id="path8089"
       style="fill-rule:evenodd;stroke:#ffffff;stroke-width:3.236;fill:#333333"
       d="m316.08 98.67l7.92 10.43" />
    <path
       id="path8091"
       style="fill-rule:evenodd;stroke:#ffffff;stroke-width:3.334;fill:#333333"
       d="m326.15 91.875l6.66 11.175" />
    <path
       id="path8093"
       style="fill-rule:evenodd;stroke:#ffffff;stroke-width:3.2484;fill:#333333"
       d="m348.97 82.16l3.25 12.722" />
    <path
       id="path8095"
       style="fill-rule:evenodd;stroke:#ffffff;stroke-width:3.2262;fill:#333333"
       d="m360.33 79.778l1.2 13.012" />
    <path
       id="path8099"
       style="fill-rule:evenodd;stroke:#ffffff;stroke-width:3.3781;fill:#333333"
       d="m371.96 78.819v13.098" />
    <path
       id="path8101"
       style="fill-rule:evenodd;stroke:#ffffff;stroke-width:3.2557;fill:#333333"
       d="m384.93 79.701l-1.18 12.959" />
    <path
       id="path8103"
       style="fill-rule:evenodd;stroke:#ffffff;stroke-width:3.2353;fill:#333333"
       d="m409.69 86.725l-6.04 11.677" />
    <path
       id="path8105"
       style="fill-rule:evenodd;stroke:#ffffff;stroke-width:3.2004;fill:#333333"
       d="m420.9 92.952l-7.01 11.138" />
    <path
       id="path8107"
       style="fill-rule:evenodd;stroke:#ffffff;stroke-width:3.2254;fill:#333333"
       d="m431.02 100.7l-8.8 9.68" />
    <path
       id="path8109"
       style="fill-rule:evenodd;stroke:#ffffff;stroke-width:3.2538;fill:#333333"
       d="m439.66 109.62l-9.69 8.74" />
    <path
       id="path8111"
       style="fill-rule:evenodd;stroke:#ffffff;stroke-width:3.3217;fill:#333333"
       d="m441.25 136.46l11.9-6.23" />
    <path
       id="path8113"
       style="fill-rule:evenodd;stroke:#f50a0a;stroke-width:3.9697;fill:#333333"
       d="m445.25 158.57l23.65-6.07" />
    <path
       id="path8115"
       style="fill-rule:evenodd;stroke:#ffffff;stroke-width:3.2004;fill:#333333"
       d="m450.76 167.36l12.99-0.42" />
    <path
       id="path8119"
       style="fill-rule:evenodd;stroke:#ffffff;stroke-width:3.2004;fill:#333333"
       d="m449.11 189.43l13.2 1.85" />
    <path
       id="path8125"
       style="fill-rule:evenodd;stroke:#ffffff;stroke-width:3.2004;fill:#333333"
       d="m446.84 199.33l11.55 4.33" />
    <path
       id="path8127"
       style="fill-rule:evenodd;stroke:#ffffff;stroke-width:3.2004;fill:#333333"
       d="m442.92 209.43l11.34 5.57" />
    <path
       id="path8129"
       style="fill-rule:evenodd;stroke:#ffffff;stroke-width:3.2004;fill:#333333"
       d="m437.14 219.13l10.52 7.22" />
    <path
       id="flowRoot16874"
       style="stroke:#ffffff;fill:#ffffff"
       transform="matrix(1.0465 0 0 1.1164 266.27 -10.965)"
       d="m79.402 134.73v-12.89h6.636c1.231 0 2.171 0.11 2.821 0.32 0.651 0.21 1.175 0.6 1.574 1.17 0.398 0.57 0.597 1.27 0.597 2.09 0 0.72-0.152 1.33-0.457 1.85-0.304 0.52-0.723 0.94-1.257 1.26-0.339 0.21-0.805 0.38-1.397 0.51 0.475 0.16 0.82 0.32 1.037 0.48 0.147 0.1 0.359 0.33 0.637 0.67 0.279 0.35 0.465 0.62 0.558 0.8l1.925 3.74h-4.5l-2.127-3.94c-0.269-0.51-0.51-0.84-0.72-0.99-0.288-0.2-0.613-0.3-0.976-0.3h-0.352v5.23h-3.999zm3.999-7.67h1.679c0.182 0 0.533-0.05 1.055-0.17 0.263-0.05 0.479-0.19 0.646-0.41 0.167-0.21 0.25-0.46 0.25-0.74 0-0.42-0.132-0.74-0.395-0.96-0.264-0.22-0.759-0.33-1.486-0.33h-1.749v2.61zm9.923-5.22h6.618c1.438 0 2.518 0.35 3.238 1.03 0.72 0.69 1.08 1.66 1.08 2.93 0 1.3-0.39 2.32-1.18 3.05-0.78 0.73-1.97 1.1-3.577 1.1h-2.18v4.78h-3.999v-12.89zm3.999 5.5h0.976c0.767 0 1.306-0.14 1.617-0.4 0.314-0.27 0.464-0.61 0.464-1.03 0-0.4-0.13-0.74-0.402-1.03-0.27-0.28-0.777-0.42-1.521-0.42h-1.134v2.88zm8.987-5.5h5.23l2.03 7.84 2.01-7.84h5.22v12.89h-3.25v-9.83l-2.53 9.83h-2.94l-2.51-9.83v9.83h-3.26v-12.89z" />
    <path
       id="flowRoot16882"
       style="stroke:#ffffff;fill:#ffffff"
       transform="matrix(.65585 0 0 .84377 330.94 21.739)"
       d="m38.727 144.54h3.898l2.031 3.53 1.969-3.53h3.859l-3.562 5.55 3.898 5.9h-3.976l-2.258-3.67-2.266 3.67h-3.953l3.953-5.96-3.593-5.49zm19.921-0.19v11.64h-3.218v-7.63c-0.521 0.4-1.025 0.72-1.512 0.96-0.487 0.25-1.098 0.48-1.832 0.71v-2.61c1.083-0.35 1.924-0.77 2.523-1.26s1.068-1.09 1.407-1.81h2.632zm3.477 5.87c0-2.18 0.392-3.7 1.176-4.57s1.978-1.3 3.582-1.3c0.771 0 1.403 0.09 1.898 0.28s0.899 0.44 1.211 0.74c0.313 0.31 0.559 0.63 0.738 0.96 0.18 0.34 0.325 0.73 0.434 1.18 0.214 0.85 0.32 1.75 0.32 2.67 0 2.08-0.351 3.6-1.054 4.56-0.703 0.97-1.914 1.45-3.633 1.45-0.964 0-1.742-0.15-2.336-0.46s-1.081-0.76-1.461-1.35c-0.276-0.42-0.491-1-0.645-1.73-0.153-0.73-0.23-1.54-0.23-2.43zm3.156 0.01c0 1.46 0.129 2.45 0.387 2.99 0.258 0.53 0.631 0.8 1.121 0.8 0.323 0 0.603-0.12 0.84-0.34 0.237-0.23 0.411-0.59 0.523-1.08s0.168-1.25 0.168-2.28c0-1.53-0.129-2.55-0.386-3.07-0.258-0.52-0.645-0.79-1.161-0.79-0.526 0-0.906 0.27-1.14 0.8-0.235 0.54-0.352 1.53-0.352 2.97zm7.531-0.01c0-2.18 0.392-3.7 1.176-4.57s1.978-1.3 3.582-1.3c0.771 0 1.404 0.09 1.899 0.28s0.898 0.44 1.211 0.74c0.312 0.31 0.558 0.63 0.738 0.96 0.18 0.34 0.324 0.73 0.434 1.18 0.213 0.85 0.32 1.75 0.32 2.67 0 2.08-0.352 3.6-1.055 4.56-0.703 0.97-1.914 1.45-3.633 1.45-0.963 0-1.742-0.15-2.336-0.46-0.593-0.31-1.08-0.76-1.46-1.35-0.277-0.42-0.491-1-0.645-1.73s-0.231-1.54-0.231-2.43zm3.157 0.01c0 1.46 0.129 2.45 0.386 2.99 0.258 0.53 0.632 0.8 1.122 0.8 0.322 0 0.602-0.12 0.839-0.34 0.237-0.23 0.412-0.59 0.524-1.08s0.168-1.25 0.168-2.28c0-1.53-0.129-2.55-0.387-3.07s-0.644-0.79-1.16-0.79c-0.526 0-0.906 0.27-1.141 0.8-0.234 0.54-0.351 1.53-0.351 2.97z" />
    <path
       id="flowRoot16906"
       style="stroke:#ffffff;fill:#ffffff"
       transform="matrix(.96983 0 0 .96983 253.69 24.075)"
       d="m32.859 232.57c0-3.13 0.763-5.77 2.289-7.92 1.526-2.16 3.566-3.24 6.118-3.24 5.323 0 7.984 3.89 7.984 11.66 0 3.64-0.719 6.54-2.156 8.7-1.438 2.17-3.453 3.25-6.047 3.25-2.792 0-4.854-1-6.188-3-1.333-2-2-5.15-2-9.45zm4.219 0.28c0 3.05 0.297 5.3 0.891 6.74 0.593 1.43 1.578 2.15 2.953 2.15 1.489 0 2.547-0.65 3.172-1.94 0.625-1.3 0.937-3.61 0.937-6.93 0-3.1-0.299-5.23-0.898-6.41s-1.581-1.77-2.945-1.77c-2.74 0-4.11 2.72-4.11 8.16z" />
    <path
       id="flowRoot16914"
       style="stroke:#ffffff;fill:#ffffff"
       transform="matrix(.96983 0 0 .96983 225.53 -39.08)"
       d="m34.266 242.98l1.609-3.35c1.656 1.29 3.078 1.94 4.266 1.94 2.625 0 3.937-1.61 3.937-4.84 0-1.56-0.297-2.69-0.89-3.4-0.594-0.72-1.589-1.07-2.985-1.07-1.26 0-2.489 0.62-3.687 1.86l-1.61-1.05v-11.34h12.328v3.45h-8.422v4.09c0.688-0.31 1.511-0.47 2.469-0.47 2.25 0 3.982 0.66 5.196 1.96 1.213 1.3 1.82 3.14 1.82 5.53 0 5.82-2.714 8.73-8.141 8.73-2.25 0-4.213-0.68-5.89-2.04z" />
    <path
       id="flowRoot16924"
       style="stroke:#ffffff;fill:#ffffff"
       transform="matrix(.96983 0 0 .96983 220.89 -109.99)"
       d="m40.578 244.71v-16.5l-4.656 2.8v-3.91c2.989-1.45 5.354-3.24 7.094-5.37h1.625v22.98h-4.063zm11.031-12.14c0-3.13 0.763-5.77 2.289-7.92 1.526-2.16 3.566-3.24 6.118-3.24 5.323 0 7.984 3.89 7.984 11.66 0 3.64-0.719 6.54-2.156 8.7-1.438 2.17-3.453 3.25-6.047 3.25-2.792 0-4.854-1-6.188-3-1.333-2-2-5.15-2-9.45zm4.219 0.28c0 3.05 0.297 5.3 0.891 6.74 0.593 1.43 1.578 2.15 2.953 2.15 1.489 0 2.547-0.65 3.172-1.94 0.625-1.3 0.937-3.61 0.937-6.93 0-3.1-0.299-5.23-0.898-6.41s-1.581-1.77-2.945-1.77c-2.74 0-4.11 2.72-4.11 8.16z" />
    <path
       id="flowRoot16934"
       style="stroke:#ffffff;fill:#ffffff"
       transform="matrix(.96983 0 0 .96983 275.73 -159.32)"
       d="m40.578 244.71v-16.5l-4.656 2.8v-3.91c2.989-1.45 5.354-3.24 7.094-5.37h1.625v22.98h-4.063zm12.438-1.73l1.609-3.35c1.656 1.29 3.078 1.94 4.266 1.94 2.625 0 3.937-1.61 3.937-4.84 0-1.56-0.297-2.69-0.89-3.4-0.594-0.72-1.589-1.07-2.985-1.07-1.26 0-2.489 0.62-3.687 1.86l-1.61-1.05v-11.34h12.328v3.45h-8.422v4.09c0.688-0.31 1.511-0.47 2.469-0.47 2.25 0 3.982 0.66 5.196 1.96 1.213 1.3 1.82 3.14 1.82 5.53 0 5.82-2.714 8.73-8.141 8.73-2.25 0-4.213-0.68-5.89-2.04z" />
    <path
       id="flowRoot16944"
       style="stroke:#ffffff;fill:#ffffff"
       transform="matrix(.96983 0 0 .96983 352.95 -163.19)"
       d="m34.109 244.71v-1.19l7.25-10.67c1.448-2.13 2.172-3.93 2.172-5.39 0-1.73-1.036-2.59-3.109-2.59-1.583 0-2.86 0.84-3.828 2.51l-2.735-2.15c0.542-1.1 1.394-2.01 2.555-2.73 1.162-0.72 2.445-1.09 3.852-1.09 2.343 0 4.177 0.54 5.5 1.61 1.323 1.06 1.984 2.54 1.984 4.44 0 1.74-0.849 3.91-2.547 6.5l-4.687 7.14h8.593v3.61h-15zm17.5-12.14c0-3.13 0.763-5.77 2.289-7.92 1.526-2.16 3.566-3.24 6.118-3.24 5.323 0 7.984 3.89 7.984 11.66 0 3.64-0.719 6.54-2.156 8.7-1.438 2.17-3.453 3.25-6.047 3.25-2.792 0-4.854-1-6.188-3-1.333-2-2-5.15-2-9.45zm4.219 0.28c0 3.05 0.297 5.3 0.891 6.74 0.593 1.43 1.578 2.15 2.953 2.15 1.489 0 2.547-0.65 3.172-1.94 0.625-1.3 0.937-3.61 0.937-6.93 0-3.1-0.299-5.23-0.898-6.41s-1.581-1.77-2.945-1.77c-2.74 0-4.11 2.72-4.11 8.16z" />
    <path
       id="flowRoot16954"
       style="stroke:#ffffff;fill:#ffffff"
       transform="matrix(.96983 0 0 .96983 432.31 -47.66)"
       d="m33.922 242.79l2.031-3.14c1.208 1.28 2.521 1.92 3.938 1.92 2.583 0 3.875-1.21 3.875-3.64 0-1.1-0.375-2-1.125-2.7-0.75-0.69-1.761-1.04-3.032-1.04h-0.718v-3.34h0.609c2.333 0 3.5-0.97 3.5-2.92 0-2.04-1.089-3.06-3.266-3.06-1.125 0-2.218 0.53-3.281 1.59l-1.906-2.8c0.489-0.6 1.255-1.13 2.297-1.57 1.041-0.45 2.083-0.68 3.125-0.68 2.281 0 4.06 0.52 5.336 1.57 1.276 1.04 1.914 2.5 1.914 4.37 0 2.23-0.959 3.93-2.875 5.09 2.427 1.17 3.64 3.08 3.64 5.72 0 2.18-0.721 3.87-2.164 5.07-1.442 1.19-3.435 1.79-5.976 1.79-2.313 0-4.287-0.74-5.922-2.23zm17.687-10.22c0-3.13 0.763-5.77 2.289-7.92 1.526-2.16 3.566-3.24 6.118-3.24 5.323 0 7.984 3.89 7.984 11.66 0 3.64-0.719 6.54-2.156 8.7-1.438 2.17-3.453 3.25-6.047 3.25-2.792 0-4.854-1-6.188-3-1.333-2-2-5.15-2-9.45zm4.219 0.28c0 3.05 0.297 5.3 0.891 6.74 0.593 1.43 1.578 2.15 2.953 2.15 1.489 0 2.547-0.65 3.172-1.94 0.625-1.3 0.937-3.61 0.937-6.93 0-3.1-0.299-5.23-0.898-6.41s-1.581-1.77-2.945-1.77c-2.74 0-4.11 2.72-4.11 8.16z" />
    <path
       id="flowRoot16962"
       style="stroke:#ffffff;fill:#ffffff"
       transform="matrix(.96983 0 0 .96983 413.48 -124.42)"
       d="m34.109 244.71v-1.19l7.25-10.67c1.448-2.13 2.172-3.93 2.172-5.39 0-1.73-1.036-2.59-3.109-2.59-1.583 0-2.86 0.84-3.828 2.51l-2.735-2.15c0.542-1.1 1.394-2.01 2.555-2.73 1.162-0.72 2.445-1.09 3.852-1.09 2.343 0 4.177 0.54 5.5 1.61 1.323 1.06 1.984 2.54 1.984 4.44 0 1.74-0.849 3.91-2.547 6.5l-4.687 7.14h8.593v3.61h-15zm18.907-1.73l1.609-3.35c1.656 1.29 3.078 1.94 4.266 1.94 2.625 0 3.937-1.61 3.937-4.84 0-1.56-0.297-2.69-0.89-3.4-0.594-0.72-1.589-1.07-2.985-1.07-1.26 0-2.489 0.62-3.687 1.86l-1.61-1.05v-11.34h12.328v3.45h-8.422v4.09c0.688-0.31 1.511-0.47 2.469-0.47 2.25 0 3.982 0.66 5.196 1.96 1.213 1.3 1.82 3.14 1.82 5.53 0 5.82-2.714 8.73-8.141 8.73-2.25 0-4.213-0.68-5.89-2.04z" />
    <path
       id="flowRoot16970"
       style="stroke:#ffffff;fill:#ffffff"
       transform="matrix(.96983 0 0 .96983 397.28 25.268)"
       d="m33.922 242.79l2.031-3.14c1.208 1.28 2.521 1.92 3.938 1.92 2.583 0 3.875-1.21 3.875-3.64 0-1.1-0.375-2-1.125-2.7-0.75-0.69-1.761-1.04-3.032-1.04h-0.718v-3.34h0.609c2.333 0 3.5-0.97 3.5-2.92 0-2.04-1.089-3.06-3.266-3.06-1.125 0-2.218 0.53-3.281 1.59l-1.906-2.8c0.489-0.6 1.255-1.13 2.297-1.57 1.041-0.45 2.083-0.68 3.125-0.68 2.281 0 4.06 0.52 5.336 1.57 1.276 1.04 1.914 2.5 1.914 4.37 0 2.23-0.959 3.93-2.875 5.09 2.427 1.17 3.64 3.08 3.64 5.72 0 2.18-0.721 3.87-2.164 5.07-1.442 1.19-3.435 1.79-5.976 1.79-2.313 0-4.287-0.74-5.922-2.23zm19.094 0.19l1.609-3.35c1.656 1.29 3.078 1.94 4.266 1.94 2.625 0 3.937-1.61 3.937-4.84 0-1.56-0.297-2.69-0.89-3.4-0.594-0.72-1.589-1.07-2.985-1.07-1.26 0-2.489 0.62-3.687 1.86l-1.61-1.05v-11.34h12.328v3.45h-8.422v4.09c0.688-0.31 1.511-0.47 2.469-0.47 2.25 0 3.982 0.66 5.196 1.96 1.213 1.3 1.82 3.14 1.82 5.53 0 5.82-2.714 8.73-8.141 8.73-2.25 0-4.213-0.68-5.89-2.04z" />
  </g>
  <metadata
     id="metadata127">
    <rdf:RDF>
      <cc:Work>
        <dc:format>image/svg+xml</dc:format>
        <dc:type
           rdf:resource="http://purl.org/dc/dcmitype/StillImage" />
        <cc:license
           rdf:resource="http://creativecommons.org/licenses/publicdomain/" />
        <dc:publisher>
          <cc:Agent
             rdf:about="http://openclipart.org/">
            <dc:title>Openclipart</dc:title>
          </cc:Agent>
        </dc:publisher>
        <dc:date>2008-07-19T20:42:47</dc:date>
        <dc:description>This is a Engine Tachometer common to many types of General Aviation aircraft. It is color-coded for the Cessna type engine and prop limits. The color coding can be modified as needed for a particular type of aircraft.</dc:description>
        <dc:source>https://openclipart.org/detail/17962/cessna-type-aircraft-tachometer-by-startright</dc:source>
        <dc:creator>
          <cc:Agent>
            <dc:title>Startright</dc:title>
          </cc:Agent>
        </dc:creator>
        <dc:subject>
          <rdf:Bag>
            <rdf:li>cessna</rdf:li>
            <rdf:li>engine guage</rdf:li>
            <rdf:li>rpm</rdf:li>
            <rdf:li>tach</rdf:li>
            <rdf:li>tachometer</rdf:li>
          </rdf:Bag>
        </dc:subject>
      </cc:Work>
      <cc:License
         rdf:about="http://creativecommons.org/licenses/publicdomain/">
        <cc:permits
           rdf:resource="http://creativecommons.org/ns#Reproduction" />
        <cc:permits
           rdf:resource="http://creativecommons.org/ns#Distribution" />
        <cc:permits
           rdf:resource="http://creativecommons.org/ns#DerivativeWorks" />
      </cc:License>
    </rdf:RDF>
  </metadata>
</svg>
